<?xml version="1.0" standalone="no"?><!DOCTYPE svg PUBLIC "-//W3C//DTD SVG 1.1//EN" "http://www.w3.org/Graphics/SVG/1.1/DTD/svg11.dtd"><svg t="1739201448198" class="icon" viewBox="64 64 896 896" version="1.1" xmlns="http://www.w3.org/2000/svg" p-id="6735" xmlns:xlink="http://www.w3.org/1999/xlink" width="50" height="50"><path d="M462 643c-15.4-78-0.9-144.5 71.3-202.4 56.9-45.6 149.8-49.1 232.7-26.4C752.4 289.5 660.7 152 447.9 157.5c-108.8 2.8-193.8 50.1-281.3 117.8-98.7 76.3-116.2 215.3-91.4 292 19.6 60.4 49.4 98.6 31.2 174.6-9.7 40.7 18.3 43.9 50.1 36.3C231.7 760 248 754.8 312.9 766c64.8 11.2 149.8-6.8 195.2-21.6 1.7-0.6 3.8-1.3 5.7-1.9-27.4-27.5-44.3-61.3-51.8-99.5z" fill="#1296db" p-id="6736"></path><path d="M926.8 517.3c-28.5-46.8-91.1-84.1-160.7-103.1 0.1 0.7 0.2 1.3 0.3 2 22.1 213.4-175.7 300.3-252.6 326.3 26.6 26.7 63.2 47.4 111.1 59.9 71.3 18.6 135.8 4.4 145.4 39.4 5.6 20.4 25.7 33.8 49 16.6 83-60.9 194.8-197.7 107.5-341.1z" fill="#1296db" p-id="6737"></path><path d="M766.3 416.2c-0.1-0.7-0.2-1.3-0.3-2-83-22.7-175.8-19.2-232.7 26.4C461.1 498.5 446.6 565 462 643c7.5 38.2 24.4 72 51.8 99.5 76.9-26 274.6-112.9 252.5-326.3z" fill="#1296db" p-id="6738"></path></svg>