<?xml version="1.0" standalone="no"?><!DOCTYPE svg PUBLIC "-//W3C//DTD SVG 1.1//EN" "http://www.w3.org/Graphics/SVG/1.1/DTD/svg11.dtd"><svg t="1739201511882" class="icon" viewBox="128 128 768 768" version="1.1" xmlns="http://www.w3.org/2000/svg" p-id="8603" xmlns:xlink="http://www.w3.org/1999/xlink" width="200" height="200"><path d="M422.4 652.8C422.4 627.2 435.2 601.6 448 576L441.6 537.6c-6.4 0-6.4 0-12.8 0-6.4 0-6.4 0-12.8 0L396.8 704l32 32L460.8 704l0 0L448 704C435.2 704 416 672 422.4 652.8z" p-id="8604" fill="#8a8a8a"></path><path d="M640 448 627.2 608 652.8 620.8 678.4 608 665.6 448Z" p-id="8605" fill="#8a8a8a"></path><path d="M646.4 448 627.2 608 659.2 620.8 684.8 608 665.6 448Z" p-id="8606" fill="#8a8a8a"></path><path d="M704 435.2c38.4-19.2 57.6-51.2 57.6-96 0-57.6-44.8-102.4-102.4-102.4S550.4 281.6 550.4 339.2C550.4 384 576 422.4 614.4 435.2 588.8 441.6 563.2 454.4 537.6 467.2 524.8 492.8 505.6 518.4 480 524.8c89.6 19.2 160 89.6 192 179.2l179.2 0c19.2 0 32-32 32-51.2C876.8 550.4 800 454.4 704 435.2zM659.2 620.8 627.2 608 646.4 448l19.2 0 19.2 160L659.2 620.8z" p-id="8607" fill="#8a8a8a"></path><path d="M416 576 416 537.6c-6.4 0-6.4 0-12.8 0-6.4 0-6.4 0-12.8 0l-19.2 172.8 32 32 32-32 0 0L416 576z" p-id="8608" fill="#8a8a8a"></path><path d="M646.4 704C608 614.4 537.6 544 448 524.8c25.6-12.8 44.8-32 57.6-57.6C512 454.4 518.4 435.2 518.4 422.4c0-64-51.2-121.6-121.6-121.6S281.6 352 281.6 422.4c0 44.8 25.6 89.6 70.4 108.8-108.8 25.6-198.4 128-211.2 249.6 0 19.2 12.8 57.6 32 57.6l454.4 0c19.2 0 38.4-38.4 32-57.6C659.2 748.8 652.8 729.6 646.4 704zM396.8 742.4l-32-32L384 537.6c6.4 0 6.4 0 12.8 0 6.4 0 6.4 0 12.8 0L416 576l12.8 128 0 0L396.8 742.4z" p-id="8609" fill="#8a8a8a"></path></svg>