<?xml version="1.0" standalone="no"?><!DOCTYPE svg PUBLIC "-//W3C//DTD SVG 1.1//EN" "http://www.w3.org/Graphics/SVG/1.1/DTD/svg11.dtd"><svg t="1739382457399" class="icon" viewBox="0 0 1024 1024" version="1.1" xmlns="http://www.w3.org/2000/svg" p-id="5839" xmlns:xlink="http://www.w3.org/1999/xlink" width="64" height="64"><path d="M960 456c0 15.5-6.3 29.5-16.4 39.7l-112 111.9C821.4 617.8 807.4 624 792 624c-30.9 0-56-25-56-55.9 0-15.5 6.3-29.5 16.4-39.7l16.4-16.4H624c-30.9 0-56-25.1-56-56.1 0-30.9 25.1-56 56-56h144.8l-16.4-16.3C742.3 373.5 736 359.5 736 344c0-30.9 25.1-56 56-56 15.4 0 29.4 6.3 39.6 16.5l112 111.9c10.1 10.2 16.4 24.2 16.4 39.6zM792 176.1H322.2l106.6 64-0.5 0.8c16.3 9.8 27.7 26.9 27.7 47.2v448.1h336c30.9 0 56 25 56 55.9 0 31-25.1 56.1-56 56.1H456v56c0 30.9-25.1 55.9-56 55.9-10.6 0-19.9-3.7-28.3-8.8l-0.5 0.8L91.2 784l0.5-0.8c-7.5-4.5-13.6-10.6-18.3-18-0.7-1-1.4-1.9-2-3-4.3-7.9-7.4-16.5-7.4-26.1V120c0-23.2 14.1-43 34.2-51.6 6.7-2.8 14.1-4.4 21.8-4.4h672c30.9 0 56 25.1 56 56 0 31-25.1 56.1-56 56.1z" p-id="5840" fill="#8a8a8a"></path></svg>