<?xml version="1.0" standalone="no"?><!DOCTYPE svg PUBLIC "-//W3C//DTD SVG 1.1//EN" "http://www.w3.org/Graphics/SVG/1.1/DTD/svg11.dtd"><svg t="1739267819213" class="icon" viewBox="0 0 1024 1024" version="1.1" xmlns="http://www.w3.org/2000/svg" p-id="10277" xmlns:xlink="http://www.w3.org/1999/xlink" width="200" height="200"><path d="M296.96 327.68m20.48 0l122.88 0q20.48 0 20.48 20.48l0 92.16q0 20.48-20.48 20.48l-122.88 0q-20.48 0-20.48-20.48l0-92.16q0-20.48 20.48-20.48Z" fill="#D1D3D4" p-id="10278"></path><path d="M430.08 327.68h266.24a81.92 81.92 0 0 1 81.92 81.92v184.32a81.92 81.92 0 0 1-81.92 81.92h-10.87488l0.31744 61.44L532.48 675.84H430.08a81.92 81.92 0 0 1-81.92-81.92V409.6a81.92 81.92 0 0 1 81.92-81.92z" fill="#333333" p-id="10279"></path><path d="M477.87008 511.488H409.6L307.41504 552.96l0.21504-41.472h-7.26016A54.95808 54.95808 0 0 1 245.76 456.192V331.776a54.95808 54.95808 0 0 1 54.60992-55.296h177.50016A54.95808 54.95808 0 0 1 532.48 331.776v124.416a54.95808 54.95808 0 0 1-54.60992 55.296zM491.52 342.016a24.34048 24.34048 0 0 0-24.09472-24.576H310.81472A24.34048 24.34048 0 0 0 286.72 342.016v110.592a24.34048 24.34048 0 0 0 24.09472 24.576h30.11584l0.18432 24.576 65.88416-24.576h60.416A24.34048 24.34048 0 0 0 491.52 452.608V342.016z" fill="#333333" p-id="10280"></path><path d="M430.08 368.5376h266.24a40.96 40.96 0 0 1 40.96 40.96v184.32a40.96 40.96 0 0 1-40.96 40.96h-51.2l-0.31744 40.96-111.99488-40.96H430.08a40.96 40.96 0 0 1-40.96-40.96v-184.32a40.96 40.96 0 0 1 40.96-40.96z" fill="#FFFFFF" p-id="10281"></path><path d="M471.04 471.04a30.72 30.72 0 1 1-30.72 30.72 30.72 30.72 0 0 1 30.72-30.72z m92.16 0a30.72 30.72 0 1 1-30.72 30.72 30.72 30.72 0 0 1 30.72-30.72z m92.16 0a30.72 30.72 0 1 1-30.72 30.72 30.72 30.72 0 0 1 30.72-30.72z" fill="#333333" p-id="10282"></path></svg>