<?xml version="1.0" standalone="no"?><!DOCTYPE svg PUBLIC "-//W3C//DTD SVG 1.1//EN" "http://www.w3.org/Graphics/SVG/1.1/DTD/svg11.dtd"><svg t="1739261303079" class="icon" viewBox="96 96 832 832" version="1.1" xmlns="http://www.w3.org/2000/svg" p-id="8147" width="200" height="200" xmlns:xlink="http://www.w3.org/1999/xlink"><path d="M878.3 616.85c-9.45-6.75-22.5-7.2-31.95 0-45 32.85-98.55 50.4-154.8 50.4-145.35 0-263.7-118.35-263.7-263.7 0-90.45 45.45-173.7 121.95-222.3 9.9-6.3 14.4-18.45 11.7-29.7a27 27 0 0 0-25.2-19.8c-5.4 0-9.9-0.45-13.95-0.45-213.75 0-387.45 173.7-387.45 387.45s173.7 387.45 387.45 387.45c163.8 0 310.95-103.95 365.4-258.3 3.6-11.7 0-24.3-9.45-31.05z" fill="#8a8a8a" p-id="8148"></path><path d="M570.5 548.45c3.6 11.7 13.95 19.35 25.65 19.35h142.2c14.85 0 27-12.15 27-27s-12.15-27-27-27h-52.2l67.05-44.1c9.9-6.75 14.4-18.9 10.8-30.15-3.6-11.25-13.95-19.35-25.65-19.35h-142.2c-14.85 0-27 12.15-27 27s12.15 27 27 27h52.2l-67.05 44.1c-9.9 6.75-13.95 18.9-10.8 30.15z m140.85-190.8c2.7 9 11.25 15.3 20.7 15.3h87.3c7.65 0 14.85-4.05 18.45-10.8 4.05-6.75 4.05-14.85 0-21.6s-10.8-10.8-18.45-10.8h-15.75l27.45-18c8.1-5.4 11.7-14.85 8.55-24.3-2.7-9-11.25-15.3-20.7-15.3h-87.3c-11.7 0-21.6 9.45-21.6 21.6 0 11.7 9.45 21.6 21.6 21.6h15.75l-27.45 18c-8.1 5.4-11.25 14.85-8.55 24.3z m51.3-168.3c2.25 7.65 9 12.6 16.65 12.6h73.8c6.3 0 12.15-3.15 15.3-8.55 3.15-5.4 3.15-12.15 0-17.55-3.15-5.4-9-8.55-15.3-8.55h-15.75l25.2-16.65c6.3-4.05 9.45-12.15 7.2-19.35-2.25-7.65-9-12.6-16.65-12.6h-73.8c-6.3 0-12.15 3.15-15.3 8.55-3.15 5.4-3.15 12.15 0 17.55 3.15 5.4 9 8.55 15.3 8.55h15.75l-25.2 16.65c-6.75 4.05-9.45 12.15-7.2 19.35z" fill="#8a8a8a" p-id="8149"></path></svg>